<mxfile host="app.diagrams.net" modified="2020-07-03T02:32:27.202Z" agent="5.0 (Macintosh; Intel Mac OS X 10_14_0) AppleWebKit/537.36 (KHTML, like Gecko) Chrome/83.0.4103.116 Safari/537.36" etag="GS8JiewetW1MIGuBXYoe" version="13.3.5" type="github">
  <diagram id="xsYkDCByHHAjWTkA2F93" name="Page-1">
    <mxGraphModel dx="770" dy="384" grid="0" gridSize="10" guides="1" tooltips="1" connect="1" arrows="1" fold="1" page="1" pageScale="1" pageWidth="850" pageHeight="1100" math="0" shadow="0">
      <root>
        <mxCell id="0" />
        <mxCell id="1" parent="0" />
        <mxCell id="mnZ0pPlDLa5_PbVLc0v6-49" value="" style="rounded=1;whiteSpace=wrap;html=1;" vertex="1" parent="1">
          <mxGeometry x="850" y="786" width="539" height="316" as="geometry" />
        </mxCell>
        <mxCell id="mnZ0pPlDLa5_PbVLc0v6-1" value="中央银行" style="rounded=1;whiteSpace=wrap;html=1;" vertex="1" parent="1">
          <mxGeometry x="617" y="138" width="470" height="40" as="geometry" />
        </mxCell>
        <mxCell id="mnZ0pPlDLa5_PbVLc0v6-2" style="edgeStyle=orthogonalEdgeStyle;rounded=0;orthogonalLoop=1;jettySize=auto;html=1;exitX=0.25;exitY=0;exitDx=0;exitDy=0;entryX=0.074;entryY=1.025;entryDx=0;entryDy=0;entryPerimeter=0;" edge="1" parent="1" source="mnZ0pPlDLa5_PbVLc0v6-3" target="mnZ0pPlDLa5_PbVLc0v6-1">
          <mxGeometry relative="1" as="geometry" />
        </mxCell>
        <mxCell id="mnZ0pPlDLa5_PbVLc0v6-3" value="运营机构" style="rounded=1;whiteSpace=wrap;html=1;" vertex="1" parent="1">
          <mxGeometry x="617" y="348" width="140" height="40" as="geometry" />
        </mxCell>
        <mxCell id="mnZ0pPlDLa5_PbVLc0v6-4" value="前置加密机" style="rounded=1;whiteSpace=wrap;html=1;" vertex="1" parent="1">
          <mxGeometry x="226" y="344" width="140" height="40" as="geometry" />
        </mxCell>
        <mxCell id="mnZ0pPlDLa5_PbVLc0v6-5" value="" style="endArrow=classic;html=1;entryX=0.75;entryY=0;entryDx=0;entryDy=0;exitX=0.221;exitY=0.975;exitDx=0;exitDy=0;exitPerimeter=0;" edge="1" parent="1" source="mnZ0pPlDLa5_PbVLc0v6-1" target="mnZ0pPlDLa5_PbVLc0v6-3">
          <mxGeometry width="50" height="50" relative="1" as="geometry">
            <mxPoint x="712" y="178" as="sourcePoint" />
            <mxPoint x="762" y="128" as="targetPoint" />
          </mxGeometry>
        </mxCell>
        <mxCell id="mnZ0pPlDLa5_PbVLc0v6-6" value="发起额度申请" style="text;html=1;strokeColor=none;fillColor=none;align=center;verticalAlign=middle;whiteSpace=wrap;rounded=0;" vertex="1" parent="1">
          <mxGeometry x="627" y="218" width="10" height="100" as="geometry" />
        </mxCell>
        <mxCell id="mnZ0pPlDLa5_PbVLc0v6-7" value="返回额度凭证" style="text;html=1;strokeColor=none;fillColor=none;align=center;verticalAlign=middle;whiteSpace=wrap;rounded=0;" vertex="1" parent="1">
          <mxGeometry x="697" y="218" width="10" height="100" as="geometry" />
        </mxCell>
        <mxCell id="mnZ0pPlDLa5_PbVLc0v6-8" value="数字法币钱包" style="rounded=1;whiteSpace=wrap;html=1;" vertex="1" parent="1">
          <mxGeometry x="617" y="528" width="140" height="40" as="geometry" />
        </mxCell>
        <mxCell id="mnZ0pPlDLa5_PbVLc0v6-9" value="开通钱包" style="text;html=1;strokeColor=none;fillColor=none;align=center;verticalAlign=middle;whiteSpace=wrap;rounded=0;" vertex="1" parent="1">
          <mxGeometry x="619.5" y="438" width="25" height="50" as="geometry" />
        </mxCell>
        <mxCell id="mnZ0pPlDLa5_PbVLc0v6-10" value="" style="endArrow=classic;startArrow=classic;html=1;entryX=0.25;entryY=1;entryDx=0;entryDy=0;exitX=0.25;exitY=0;exitDx=0;exitDy=0;" edge="1" parent="1" source="mnZ0pPlDLa5_PbVLc0v6-8" target="mnZ0pPlDLa5_PbVLc0v6-3">
          <mxGeometry width="50" height="50" relative="1" as="geometry">
            <mxPoint x="647" y="488" as="sourcePoint" />
            <mxPoint x="697" y="438" as="targetPoint" />
          </mxGeometry>
        </mxCell>
        <mxCell id="mnZ0pPlDLa5_PbVLc0v6-11" value="货币兑换" style="text;html=1;strokeColor=none;fillColor=none;align=center;verticalAlign=middle;whiteSpace=wrap;rounded=0;" vertex="1" parent="1">
          <mxGeometry x="689.5" y="438" width="25" height="50" as="geometry" />
        </mxCell>
        <mxCell id="mnZ0pPlDLa5_PbVLc0v6-12" value="" style="endArrow=classic;startArrow=classic;html=1;entryX=0.75;entryY=1;entryDx=0;entryDy=0;exitX=0.75;exitY=0;exitDx=0;exitDy=0;" edge="1" parent="1" source="mnZ0pPlDLa5_PbVLc0v6-8" target="mnZ0pPlDLa5_PbVLc0v6-3">
          <mxGeometry width="50" height="50" relative="1" as="geometry">
            <mxPoint x="707" y="498" as="sourcePoint" />
            <mxPoint x="757" y="448" as="targetPoint" />
          </mxGeometry>
        </mxCell>
        <mxCell id="mnZ0pPlDLa5_PbVLc0v6-13" value="" style="endArrow=classic;html=1;exitX=0;exitY=0.25;exitDx=0;exitDy=0;entryX=1;entryY=0.25;entryDx=0;entryDy=0;" edge="1" parent="1">
          <mxGeometry width="50" height="50" relative="1" as="geometry">
            <mxPoint x="497" y="354" as="sourcePoint" />
            <mxPoint x="367" y="354" as="targetPoint" />
          </mxGeometry>
        </mxCell>
        <mxCell id="mnZ0pPlDLa5_PbVLc0v6-14" value="" style="endArrow=classic;html=1;exitX=1;exitY=0.75;exitDx=0;exitDy=0;entryX=0;entryY=0.75;entryDx=0;entryDy=0;" edge="1" parent="1">
          <mxGeometry width="50" height="50" relative="1" as="geometry">
            <mxPoint x="367" y="374" as="sourcePoint" />
            <mxPoint x="497" y="374" as="targetPoint" />
          </mxGeometry>
        </mxCell>
        <mxCell id="mnZ0pPlDLa5_PbVLc0v6-15" value="额度凭证" style="text;html=1;strokeColor=none;fillColor=none;align=center;verticalAlign=middle;whiteSpace=wrap;rounded=0;" vertex="1" parent="1">
          <mxGeometry x="407" y="334" width="60" height="20" as="geometry" />
        </mxCell>
        <mxCell id="mnZ0pPlDLa5_PbVLc0v6-16" value="返回数字货币" style="text;html=1;strokeColor=none;fillColor=none;align=center;verticalAlign=middle;whiteSpace=wrap;rounded=0;" vertex="1" parent="1">
          <mxGeometry x="397" y="384" width="80" height="20" as="geometry" />
        </mxCell>
        <mxCell id="mnZ0pPlDLa5_PbVLc0v6-17" value="" style="aspect=fixed;pointerEvents=1;shadow=0;dashed=0;html=1;strokeColor=none;labelPosition=center;verticalLabelPosition=bottom;verticalAlign=top;align=center;fillColor=#00188D;shape=mxgraph.mscae.enterprise.android_phone" vertex="1" parent="1">
          <mxGeometry x="617" y="558" width="30" height="50" as="geometry" />
        </mxCell>
        <mxCell id="mnZ0pPlDLa5_PbVLc0v6-18" style="edgeStyle=orthogonalEdgeStyle;rounded=0;orthogonalLoop=1;jettySize=auto;html=1;exitX=0.25;exitY=0;exitDx=0;exitDy=0;entryX=0.074;entryY=1.025;entryDx=0;entryDy=0;entryPerimeter=0;" edge="1" parent="1" source="mnZ0pPlDLa5_PbVLc0v6-19">
          <mxGeometry relative="1" as="geometry">
            <mxPoint x="994.2799999999997" y="180" as="targetPoint" />
          </mxGeometry>
        </mxCell>
        <mxCell id="mnZ0pPlDLa5_PbVLc0v6-19" value="运营机构" style="rounded=1;whiteSpace=wrap;html=1;" vertex="1" parent="1">
          <mxGeometry x="959.5" y="349" width="140" height="40" as="geometry" />
        </mxCell>
        <mxCell id="mnZ0pPlDLa5_PbVLc0v6-20" value="前置加密机" style="rounded=1;whiteSpace=wrap;html=1;" vertex="1" parent="1">
          <mxGeometry x="1312" y="349" width="140" height="40" as="geometry" />
        </mxCell>
        <mxCell id="mnZ0pPlDLa5_PbVLc0v6-21" value="" style="endArrow=classic;html=1;entryX=0.75;entryY=0;entryDx=0;entryDy=0;exitX=0.221;exitY=0.975;exitDx=0;exitDy=0;exitPerimeter=0;" edge="1" parent="1" target="mnZ0pPlDLa5_PbVLc0v6-19">
          <mxGeometry width="50" height="50" relative="1" as="geometry">
            <mxPoint x="1063.37" y="178" as="sourcePoint" />
            <mxPoint x="1104.5" y="129" as="targetPoint" />
          </mxGeometry>
        </mxCell>
        <mxCell id="mnZ0pPlDLa5_PbVLc0v6-22" value="发起额度申请" style="text;html=1;strokeColor=none;fillColor=none;align=center;verticalAlign=middle;whiteSpace=wrap;rounded=0;" vertex="1" parent="1">
          <mxGeometry x="969.5" y="219" width="10" height="100" as="geometry" />
        </mxCell>
        <mxCell id="mnZ0pPlDLa5_PbVLc0v6-23" value="返回额度凭证" style="text;html=1;strokeColor=none;fillColor=none;align=center;verticalAlign=middle;whiteSpace=wrap;rounded=0;" vertex="1" parent="1">
          <mxGeometry x="1039.5" y="219" width="10" height="100" as="geometry" />
        </mxCell>
        <mxCell id="mnZ0pPlDLa5_PbVLc0v6-24" value="数字法币钱包" style="rounded=1;whiteSpace=wrap;html=1;" vertex="1" parent="1">
          <mxGeometry x="959.5" y="529" width="140" height="40" as="geometry" />
        </mxCell>
        <mxCell id="mnZ0pPlDLa5_PbVLc0v6-25" value="开通钱包" style="text;html=1;strokeColor=none;fillColor=none;align=center;verticalAlign=middle;whiteSpace=wrap;rounded=0;" vertex="1" parent="1">
          <mxGeometry x="962" y="439" width="25" height="50" as="geometry" />
        </mxCell>
        <mxCell id="mnZ0pPlDLa5_PbVLc0v6-26" value="" style="endArrow=classic;startArrow=classic;html=1;entryX=0.25;entryY=1;entryDx=0;entryDy=0;exitX=0.25;exitY=0;exitDx=0;exitDy=0;" edge="1" parent="1" source="mnZ0pPlDLa5_PbVLc0v6-24" target="mnZ0pPlDLa5_PbVLc0v6-19">
          <mxGeometry width="50" height="50" relative="1" as="geometry">
            <mxPoint x="989.5" y="489" as="sourcePoint" />
            <mxPoint x="1039.5" y="439" as="targetPoint" />
          </mxGeometry>
        </mxCell>
        <mxCell id="mnZ0pPlDLa5_PbVLc0v6-27" value="货币兑换" style="text;html=1;strokeColor=none;fillColor=none;align=center;verticalAlign=middle;whiteSpace=wrap;rounded=0;" vertex="1" parent="1">
          <mxGeometry x="1032" y="439" width="25" height="50" as="geometry" />
        </mxCell>
        <mxCell id="mnZ0pPlDLa5_PbVLc0v6-28" value="" style="endArrow=classic;startArrow=classic;html=1;entryX=0.75;entryY=1;entryDx=0;entryDy=0;exitX=0.75;exitY=0;exitDx=0;exitDy=0;" edge="1" parent="1" source="mnZ0pPlDLa5_PbVLc0v6-24" target="mnZ0pPlDLa5_PbVLc0v6-19">
          <mxGeometry width="50" height="50" relative="1" as="geometry">
            <mxPoint x="1049.5" y="499" as="sourcePoint" />
            <mxPoint x="1099.5" y="449" as="targetPoint" />
          </mxGeometry>
        </mxCell>
        <mxCell id="mnZ0pPlDLa5_PbVLc0v6-29" value="" style="endArrow=classic;html=1;" edge="1" parent="1">
          <mxGeometry width="50" height="50" relative="1" as="geometry">
            <mxPoint x="1192" y="359" as="sourcePoint" />
            <mxPoint x="1312" y="359" as="targetPoint" />
          </mxGeometry>
        </mxCell>
        <mxCell id="mnZ0pPlDLa5_PbVLc0v6-30" value="" style="endArrow=classic;html=1;" edge="1" parent="1">
          <mxGeometry width="50" height="50" relative="1" as="geometry">
            <mxPoint x="1312" y="379" as="sourcePoint" />
            <mxPoint x="1192" y="379" as="targetPoint" />
          </mxGeometry>
        </mxCell>
        <mxCell id="mnZ0pPlDLa5_PbVLc0v6-31" value="额度凭证" style="text;html=1;strokeColor=none;fillColor=none;align=center;verticalAlign=middle;whiteSpace=wrap;rounded=0;" vertex="1" parent="1">
          <mxGeometry x="1222" y="338" width="60" height="20" as="geometry" />
        </mxCell>
        <mxCell id="mnZ0pPlDLa5_PbVLc0v6-32" value="返回数字货币" style="text;html=1;strokeColor=none;fillColor=none;align=center;verticalAlign=middle;whiteSpace=wrap;rounded=0;" vertex="1" parent="1">
          <mxGeometry x="1212" y="388" width="80" height="20" as="geometry" />
        </mxCell>
        <mxCell id="mnZ0pPlDLa5_PbVLc0v6-33" value="" style="aspect=fixed;pointerEvents=1;shadow=0;dashed=0;html=1;strokeColor=none;labelPosition=center;verticalLabelPosition=bottom;verticalAlign=top;align=center;fillColor=#00188D;shape=mxgraph.mscae.enterprise.android_phone" vertex="1" parent="1">
          <mxGeometry x="959.5" y="559" width="30" height="50" as="geometry" />
        </mxCell>
        <mxCell id="mnZ0pPlDLa5_PbVLc0v6-45" style="edgeStyle=orthogonalEdgeStyle;rounded=0;orthogonalLoop=1;jettySize=auto;html=1;exitX=1;exitY=0.5;exitDx=0;exitDy=0;" edge="1" parent="1" source="mnZ0pPlDLa5_PbVLc0v6-36" target="mnZ0pPlDLa5_PbVLc0v6-38">
          <mxGeometry relative="1" as="geometry" />
        </mxCell>
        <mxCell id="mnZ0pPlDLa5_PbVLc0v6-47" style="edgeStyle=orthogonalEdgeStyle;rounded=0;orthogonalLoop=1;jettySize=auto;html=1;exitX=0.5;exitY=1;exitDx=0;exitDy=0;" edge="1" parent="1" source="mnZ0pPlDLa5_PbVLc0v6-36" target="mnZ0pPlDLa5_PbVLc0v6-37">
          <mxGeometry relative="1" as="geometry" />
        </mxCell>
        <mxCell id="mnZ0pPlDLa5_PbVLc0v6-36" value="中央银行数字货币系统" style="rounded=1;whiteSpace=wrap;html=1;" vertex="1" parent="1">
          <mxGeometry x="920" y="835" width="174" height="58" as="geometry" />
        </mxCell>
        <mxCell id="mnZ0pPlDLa5_PbVLc0v6-42" style="edgeStyle=orthogonalEdgeStyle;rounded=0;orthogonalLoop=1;jettySize=auto;html=1;exitX=0.5;exitY=0;exitDx=0;exitDy=0;entryX=0.5;entryY=1;entryDx=0;entryDy=0;" edge="1" parent="1" source="mnZ0pPlDLa5_PbVLc0v6-37" target="mnZ0pPlDLa5_PbVLc0v6-36">
          <mxGeometry relative="1" as="geometry" />
        </mxCell>
        <mxCell id="mnZ0pPlDLa5_PbVLc0v6-43" style="edgeStyle=orthogonalEdgeStyle;rounded=0;orthogonalLoop=1;jettySize=auto;html=1;exitX=1;exitY=0.5;exitDx=0;exitDy=0;entryX=0.5;entryY=1;entryDx=0;entryDy=0;" edge="1" parent="1" source="mnZ0pPlDLa5_PbVLc0v6-37" target="mnZ0pPlDLa5_PbVLc0v6-38">
          <mxGeometry relative="1" as="geometry" />
        </mxCell>
        <mxCell id="mnZ0pPlDLa5_PbVLc0v6-48" style="edgeStyle=orthogonalEdgeStyle;rounded=0;orthogonalLoop=1;jettySize=auto;html=1;exitX=0;exitY=0.5;exitDx=0;exitDy=0;" edge="1" parent="1" source="mnZ0pPlDLa5_PbVLc0v6-37" target="mnZ0pPlDLa5_PbVLc0v6-39">
          <mxGeometry relative="1" as="geometry" />
        </mxCell>
        <mxCell id="mnZ0pPlDLa5_PbVLc0v6-37" value="商业银行数字货币系统" style="rounded=1;whiteSpace=wrap;html=1;" vertex="1" parent="1">
          <mxGeometry x="920" y="1005" width="174" height="58" as="geometry" />
        </mxCell>
        <mxCell id="mnZ0pPlDLa5_PbVLc0v6-44" style="edgeStyle=orthogonalEdgeStyle;rounded=0;orthogonalLoop=1;jettySize=auto;html=1;exitX=0;exitY=0.5;exitDx=0;exitDy=0;" edge="1" parent="1" source="mnZ0pPlDLa5_PbVLc0v6-38" target="mnZ0pPlDLa5_PbVLc0v6-36">
          <mxGeometry relative="1" as="geometry" />
        </mxCell>
        <mxCell id="mnZ0pPlDLa5_PbVLc0v6-46" style="edgeStyle=orthogonalEdgeStyle;rounded=0;orthogonalLoop=1;jettySize=auto;html=1;exitX=0.5;exitY=1;exitDx=0;exitDy=0;entryX=1;entryY=0.5;entryDx=0;entryDy=0;" edge="1" parent="1" source="mnZ0pPlDLa5_PbVLc0v6-38" target="mnZ0pPlDLa5_PbVLc0v6-37">
          <mxGeometry relative="1" as="geometry" />
        </mxCell>
        <mxCell id="mnZ0pPlDLa5_PbVLc0v6-38" value="认证系统" style="rounded=1;whiteSpace=wrap;html=1;" vertex="1" parent="1">
          <mxGeometry x="1217" y="835" width="120" height="58" as="geometry" />
        </mxCell>
        <mxCell id="mnZ0pPlDLa5_PbVLc0v6-41" style="edgeStyle=orthogonalEdgeStyle;rounded=0;orthogonalLoop=1;jettySize=auto;html=1;exitX=1;exitY=0.5;exitDx=0;exitDy=0;" edge="1" parent="1" source="mnZ0pPlDLa5_PbVLc0v6-39" target="mnZ0pPlDLa5_PbVLc0v6-37">
          <mxGeometry relative="1" as="geometry" />
        </mxCell>
        <mxCell id="mnZ0pPlDLa5_PbVLc0v6-39" value="数字货币钱包" style="rounded=1;whiteSpace=wrap;html=1;" vertex="1" parent="1">
          <mxGeometry x="637" y="1005" width="120" height="58" as="geometry" />
        </mxCell>
        <mxCell id="mnZ0pPlDLa5_PbVLc0v6-40" value="" style="aspect=fixed;pointerEvents=1;shadow=0;dashed=0;html=1;strokeColor=none;labelPosition=center;verticalLabelPosition=bottom;verticalAlign=top;align=center;fillColor=#00188D;shape=mxgraph.mscae.enterprise.android_phone" vertex="1" parent="1">
          <mxGeometry x="617" y="1037" width="30" height="50" as="geometry" />
        </mxCell>
        <mxCell id="mnZ0pPlDLa5_PbVLc0v6-50" value="数字货币系统" style="text;html=1;strokeColor=none;fillColor=none;align=center;verticalAlign=middle;whiteSpace=wrap;rounded=0;" vertex="1" parent="1">
          <mxGeometry x="1082.5" y="789" width="74" height="19" as="geometry" />
        </mxCell>
      </root>
    </mxGraphModel>
  </diagram>
</mxfile>
